<?xml version="1.0" standalone="no"?>
<!DOCTYPE svg PUBLIC "-//W3C//DTD SVG 20010904//EN"
 "http://www.w3.org/TR/2001/REC-SVG-20010904/DTD/svg10.dtd">
<svg version="1.0" xmlns="http://www.w3.org/2000/svg"
 width="374.000000pt" height="374.000000pt" viewBox="0 0 374.000000 374.000000"
 preserveAspectRatio="xMidYMid meet">
<metadata>
Created by potrace 1.11, written by Peter Selinger 2001-2013
</metadata>
<g transform="translate(0.000000,374.000000) scale(0.100000,-0.100000)"
fill="#000000" stroke="none">
<path d="M845 2659 c-22 -4 -58 -11 -80 -14 -73 -12 -189 -55 -245 -92 -77
-51 -129 -108 -162 -180 -39 -83 -43 -101 -43 -228 0 -102 2 -115 29 -170 55
-112 140 -178 334 -261 126 -53 195 -89 213 -110 38 -44 28 -98 -23 -125 -107
-57 -321 40 -436 198 l-19 27 -82 -251 c-44 -137 -81 -255 -81 -261 0 -22 277
-92 430 -108 97 -11 418 -11 492 -1 169 23 314 85 399 170 83 82 118 169 124
302 7 186 -58 305 -215 393 -36 20 -143 69 -238 109 -231 96 -262 121 -240
185 32 90 245 68 375 -38 24 -20 63 -56 86 -80 l42 -45 38 113 c21 62 59 169
83 238 24 69 44 129 44 132 0 14 -228 73 -360 94 -60 9 -423 12 -465 3z"/>
<path d="M1898 2638 c-2 -7 -4 -355 -3 -773 l1 -760 342 -3 c321 -2 342 -1
343 15 0 10 1 149 1 310 l0 292 22 -11 c11 -6 23 -14 26 -18 10 -14 157 -80
196 -87 50 -10 177 -10 229 0 154 29 332 199 375 358 20 72 21 81 21 164 -1
238 -154 432 -396 502 -53 15 -125 17 -606 21 -444 2 -547 1 -551 -10z m831
-346 c51 -25 72 -60 78 -130 5 -53 2 -66 -21 -106 -15 -25 -41 -53 -59 -63
-31 -16 -109 -25 -133 -16 -8 3 -11 53 -11 169 l0 164 56 0 c34 0 70 -7 90
-18z"/>
</g>
</svg>
